<?xml version="1.0" standalone="no"?><svg xmlns:xlink="http://www.w3.org/1999/xlink" xmlns="http://www.w3.org/2000/svg" viewBox="0 0 500 500" preserveAspectRatio="xMaxYMax slice"><g transform="scale(1.4313400491808441)"><rect x="0" y="0" width="349.33299999999997" height="349.33299999999997" fill="#ffc908"/><circle cx="17.465" cy="17.465" r="8.735" fill="#fff9e4"/><circle cx="52.405" cy="17.465" r="8.735" fill="#ffe790"/><circle cx="87.335" cy="17.465" r="8.735" fill="#fff8e0"/><circle cx="122.265" cy="17.465" r="8.735" fill="#fff4cd"/><circle cx="157.20499999999998" cy="17.465" r="8.735" fill="#ffde67"/><circle cx="192.135" cy="17.465" r="8.735" fill="#fff2c4"/><circle cx="227.065" cy="17.465" r="8.735" fill="#ffcb12"/><circle cx="262.005" cy="17.465" r="8.735" fill="#ffefb6"/><circle cx="296.935" cy="17.465" r="8.735" fill="#ffedaf"/><circle cx="331.865" cy="17.465" r="8.735" fill="#ffd22f"/><circle cx="17.465" cy="52.405" r="8.735" fill="#ffdb59"/><circle cx="52.405" cy="52.405" r="8.735" fill="#ffce21"/><circle cx="87.335" cy="52.405" r="8.735" fill="#ffce1d"/><circle cx="122.265" cy="52.405" r="8.735" fill="#ffe68e"/><circle cx="157.20499999999998" cy="52.405" r="8.735" fill="#ffd541"/><circle cx="192.135" cy="52.405" r="8.735" fill="#fff9e5"/><circle cx="227.065" cy="52.405" r="8.735" fill="#ffe895"/><circle cx="262.005" cy="52.405" r="8.735" fill="#ffe586"/><circle cx="296.935" cy="52.405" r="8.735" fill="#fff9e2"/><circle cx="331.865" cy="52.405" r="8.735" fill="#ffd642"/><circle cx="17.465" cy="87.335" r="8.735" fill="#fff0b8"/><circle cx="52.405" cy="87.335" r="8.735" fill="#ffd233"/><circle cx="87.335" cy="87.335" r="8.735" fill="#ffe176"/><circle cx="122.265" cy="87.335" r="8.735" fill="#ffce1f"/><circle cx="157.20499999999998" cy="87.335" r="8.735" fill="#fff8df"/><circle cx="192.135" cy="87.335" r="8.735" fill="#ffe897"/><circle cx="227.065" cy="87.335" r="8.735" fill="#ffe27c"/><circle cx="262.005" cy="87.335" r="8.735" fill="#ffdb5c"/><circle cx="296.935" cy="87.335" r="8.735" fill="#ffe27b"/><circle cx="331.865" cy="87.335" r="8.735" fill="#fff6d8"/><circle cx="17.465" cy="122.265" r="8.735" fill="#fff8e0"/><circle cx="52.405" cy="122.265" r="8.735" fill="#ffdc5f"/><circle cx="87.335" cy="122.265" r="8.735" fill="#ffe586"/><circle cx="122.265" cy="122.265" r="8.735" fill="#ffd230"/><circle cx="157.20499999999998" cy="122.265" r="8.735" fill="#ffe278"/><circle cx="192.135" cy="122.265" r="8.735" fill="#ffca0c"/><circle cx="227.065" cy="122.265" r="8.735" fill="#ffd12e"/><circle cx="262.005" cy="122.265" r="8.735" fill="#ffd027"/><circle cx="296.935" cy="122.265" r="8.735" fill="#fff8de"/><circle cx="331.865" cy="122.265" r="8.735" fill="#ffe68c"/><circle cx="17.465" cy="157.20499999999998" r="8.735" fill="#ffdc5e"/><circle cx="52.405" cy="157.20499999999998" r="8.735" fill="#ffd335"/><circle cx="87.335" cy="157.20499999999998" r="8.735" fill="#fff1c0"/><circle cx="122.265" cy="157.20499999999998" r="8.735" fill="#ffeeb3"/><circle cx="157.20499999999998" cy="157.20499999999998" r="8.735" fill="#ffca0e"/><circle cx="192.135" cy="157.20499999999998" r="8.735" fill="#ffcb0f"/><circle cx="227.065" cy="157.20499999999998" r="8.735" fill="#ffd43c"/><circle cx="262.005" cy="157.20499999999998" r="8.735" fill="#ffdd63"/><circle cx="296.935" cy="157.20499999999998" r="8.735" fill="#fff5d3"/><circle cx="331.865" cy="157.20499999999998" r="8.735" fill="#fff7da"/><circle cx="17.465" cy="192.135" r="8.735" fill="#ffe894"/><circle cx="52.405" cy="192.135" r="8.735" fill="#ffde69"/><circle cx="87.335" cy="192.135" r="8.735" fill="#fff6d5"/><circle cx="122.265" cy="192.135" r="8.735" fill="#ffe895"/><circle cx="157.20499999999998" cy="192.135" r="8.735" fill="#ffedae"/><circle cx="192.135" cy="192.135" r="8.735" fill="#ffd335"/><circle cx="227.065" cy="192.135" r="8.735" fill="#ffde67"/><circle cx="262.005" cy="192.135" r="8.735" fill="#ffe78f"/><circle cx="296.935" cy="192.135" r="8.735" fill="#ffd746"/><circle cx="331.865" cy="192.135" r="8.735" fill="#ffe176"/><circle cx="17.465" cy="227.065" r="8.735" fill="#ffdf6d"/><circle cx="52.405" cy="227.065" r="8.735" fill="#ffd84e"/><circle cx="87.335" cy="227.065" r="8.735" fill="#ffe793"/><circle cx="122.265" cy="227.065" r="8.735" fill="#fffefc"/><circle cx="157.20499999999998" cy="227.065" r="8.735" fill="#ffd338"/><circle cx="192.135" cy="227.065" r="8.735" fill="#ffe176"/><circle cx="227.065" cy="227.065" r="8.735" fill="#ffda56"/><circle cx="262.005" cy="227.065" r="8.735" fill="#fff0bc"/><circle cx="296.935" cy="227.065" r="8.735" fill="#ffda56"/><circle cx="331.865" cy="227.065" r="8.735" fill="#ffe791"/><circle cx="17.465" cy="262.005" r="8.735" fill="#ffe894"/><circle cx="52.405" cy="262.005" r="8.735" fill="#ffefb6"/><circle cx="87.335" cy="262.005" r="8.735" fill="#ffe894"/><circle cx="122.265" cy="262.005" r="8.735" fill="#fff9e3"/><circle cx="157.20499999999998" cy="262.005" r="8.735" fill="#ffcb10"/><circle cx="192.135" cy="262.005" r="8.735" fill="#fff0ba"/><circle cx="227.065" cy="262.005" r="8.735" fill="#ffe99b"/><circle cx="262.005" cy="262.005" r="8.735" fill="#fff7d8"/><circle cx="296.935" cy="262.005" r="8.735" fill="#ffedae"/><circle cx="331.865" cy="262.005" r="8.735" fill="#ffe791"/><circle cx="17.465" cy="296.935" r="8.735" fill="#fffae7"/><circle cx="52.405" cy="296.935" r="8.735" fill="#ffdc5e"/><circle cx="87.335" cy="296.935" r="8.735" fill="#ffcc16"/><circle cx="122.265" cy="296.935" r="8.735" fill="#ffedae"/><circle cx="157.20499999999998" cy="296.935" r="8.735" fill="#fffbee"/><circle cx="192.135" cy="296.935" r="8.735" fill="#fff2c4"/><circle cx="227.065" cy="296.935" r="8.735" fill="#ffc909"/><circle cx="262.005" cy="296.935" r="8.735" fill="#ffd53f"/><circle cx="296.935" cy="296.935" r="8.735" fill="#fffbed"/><circle cx="331.865" cy="296.935" r="8.735" fill="#ffca0b"/><circle cx="17.465" cy="331.865" r="8.735" fill="#ffea9d"/><circle cx="52.405" cy="331.865" r="8.735" fill="#ffd53e"/><circle cx="87.335" cy="331.865" r="8.735" fill="#ffcc18"/><circle cx="122.265" cy="331.865" r="8.735" fill="#fffffe"/><circle cx="157.20499999999998" cy="331.865" r="8.735" fill="#ffde69"/><circle cx="192.135" cy="331.865" r="8.735" fill="#ffce20"/><circle cx="227.065" cy="331.865" r="8.735" fill="#ffeba2"/><circle cx="262.005" cy="331.865" r="8.735" fill="#ffce1f"/><circle cx="296.935" cy="331.865" r="8.735" fill="#ffce20"/><circle cx="331.865" cy="331.865" r="8.735" fill="#ffde67"/></g></svg>