<?xml version="1.0" standalone="no"?><svg xmlns:xlink="http://www.w3.org/1999/xlink" xmlns="http://www.w3.org/2000/svg" viewBox="0 0 500 500" preserveAspectRatio="xMaxYMax slice"><g transform="scale(1.4313400491808441)"><rect x="0" y="0" width="349.33299999999997" height="349.33299999999997" fill="#ffc908"/><rect x="13.97332" y="13.97332" width="6.986659999999997" height="6.986659999999997" fill="#ffc908"/><rect x="13.97" y="13.97" width="3.49" height="3.49" fill="#cbdbe8"/><rect x="17.47" y="13.97" width="3.49" height="3.49" fill="#ffe06f"/><rect x="13.97" y="17.47" width="3.49" height="3.49" fill="#ffe175"/><rect x="17.47" y="17.47" width="3.49" height="3.49" fill="#ffe073"/><rect x="48.91" y="13.97" width="6.99" height="6.99" fill="#c0d4e3"/><rect x="83.84" y="13.97" width="6.99" height="6.99" fill="#ffd84b"/><rect x="118.77321999999998" y="13.97332" width="6.986659999999997" height="6.986659999999997" fill="#ffc908"/><rect x="118.77" y="13.97" width="3.49" height="3.49" fill="#ffd335"/><rect x="122.27" y="13.97" width="3.49" height="3.49" fill="#ffe27c"/><rect x="118.77" y="17.47" width="3.49" height="3.49" fill="#ffe485"/><rect x="122.27" y="17.47" width="3.49" height="3.49" fill="#437dac"/><rect x="153.71" y="13.97" width="6.99" height="6.99" fill="#e6eef4"/><rect x="188.63982" y="13.97332" width="6.986659999999997" height="6.986659999999997" fill="#ffc908"/><rect x="188.64" y="13.97" width="3.49" height="3.49" fill="#457fad"/><rect x="192.13" y="13.97" width="3.49" height="3.49" fill="#fffefa"/><rect x="188.64" y="17.47" width="3.49" height="3.49" fill="#fff0bc"/><rect x="192.13" y="17.47" width="3.49" height="3.49" fill="#fff6d6"/><rect x="223.57311999999996" y="13.97332" width="6.986659999999997" height="6.986659999999997" fill="#ffc908"/><rect x="223.57" y="13.97" width="3.49" height="3.49" fill="#3977a8"/><rect x="227.07" y="13.97" width="3.49" height="3.49" fill="#0b5694"/><rect x="223.57" y="17.47" width="3.49" height="3.49" fill="#ffeba3"/><rect x="227.07" y="17.47" width="3.49" height="3.49" fill="#3976a8"/><rect x="258.50641999999993" y="13.97332" width="6.986659999999997" height="6.986659999999997" fill="#ffc908"/><rect x="258.51" y="13.97" width="3.49" height="3.49" fill="#ffe790"/><rect x="262" y="13.97" width="3.49" height="3.49" fill="#ffdd61"/><rect x="258.51" y="17.47" width="3.49" height="3.49" fill="#ffde69"/><rect x="262" y="17.47" width="3.49" height="3.49" fill="#6e9bbf"/><rect x="293.43971999999997" y="13.97332" width="6.986659999999997" height="6.986659999999997" fill="#ffc908"/><rect x="293.44" y="13.97" width="3.49" height="3.49" fill="#5b8eb7"/><rect x="296.93" y="13.97" width="3.49" height="3.49" fill="#ffca0e"/><rect x="293.44" y="17.47" width="3.49" height="3.49" fill="#bdd1e2"/><rect x="296.93" y="17.47" width="3.49" height="3.49" fill="#bfd3e3"/><rect x="328.37301999999994" y="13.97332" width="6.986659999999997" height="6.986659999999997" fill="#ffc908"/><rect x="328.37" y="13.97" width="3.49" height="3.49" fill="#ffe486"/><rect x="331.87" y="13.97" width="3.49" height="3.49" fill="#ffeba1"/><rect x="328.37" y="17.47" width="3.49" height="3.49" fill="#ffde6a"/><rect x="331.87" y="17.47" width="3.49" height="3.49" fill="#ffd950"/><rect x="13.97" y="48.91" width="6.99" height="6.99" fill="#ffe071"/><rect x="48.101756767999994" y="48.101756767999994" width="8.596386463999998" height="8.596386463999998" fill="#ffc908"/><rect x="48.1" y="48.1" width="4.3" height="4.3" fill="#ffd952"/><rect x="52.4" y="48.1" width="4.3" height="4.3" fill="#ffeaa0"/><rect x="48.1" y="52.4" width="4.3" height="4.3" fill="#ffe070"/><rect x="52.4" y="52.4" width="4.3" height="4.3" fill="#ffda56"/><rect x="82.23019353599999" y="47.296893536" width="10.206112927999996" height="10.206112927999996" fill="#ffc908"/><rect x="82.23" y="47.3" width="5.1" height="5.1" fill="#ffe68d"/><rect x="87.33" y="47.3" width="5.1" height="5.1" fill="#fff0b9"/><rect x="82.23" y="52.4" width="5.1" height="5.1" fill="#ffda54"/><rect x="87.33" y="52.4" width="5.1" height="5.1" fill="#135c97"/><rect x="116.35863030399997" y="46.492030304" width="11.815839391999994" height="11.815839391999994" fill="#ffc908"/><rect x="116.36" y="46.49" width="5.91" height="5.91" fill="#3a77a9"/><rect x="122.27" y="46.49" width="5.91" height="5.91" fill="#fffef9"/><rect x="116.36" y="52.4" width="5.91" height="5.91" fill="#ffcb13"/><rect x="122.27" y="52.4" width="5.91" height="5.91" fill="#296ca1"/><rect x="150.48706707199997" y="45.687167071999994" width="13.425565855999995" height="13.425565855999995" fill="#ffc908"/><rect x="150.49" y="45.69" width="6.71" height="6.71" fill="#6e9bbf"/><rect x="157.2" y="45.69" width="6.71" height="6.71" fill="#dfe9f1"/><rect x="150.49" y="52.4" width="6.71" height="6.71" fill="#ffcc16"/><rect x="157.2" y="52.4" width="6.71" height="6.71" fill="#ffe279"/><rect x="185.29" y="45.55" width="13.69" height="13.69" fill="#ffe483"/><rect x="220.35" y="45.69" width="13.43" height="13.43" fill="#ffd84d"/><rect x="256.091830304" y="46.492030304" width="11.815839391999994" height="11.815839391999994" fill="#ffc908"/><rect x="256.09" y="46.49" width="5.91" height="5.91" fill="#3d79aa"/><rect x="262" y="46.49" width="5.91" height="5.91" fill="#ffdb5a"/><rect x="256.09" y="52.4" width="5.91" height="5.91" fill="#a5c1d8"/><rect x="262" y="52.4" width="5.91" height="5.91" fill="#d3e1ec"/><rect x="291.82999353599996" y="47.296893536" width="10.206112927999996" height="10.206112927999996" fill="#ffc908"/><rect x="291.83" y="47.3" width="5.1" height="5.1" fill="#ffd952"/><rect x="296.93" y="47.3" width="5.1" height="5.1" fill="#ffecaa"/><rect x="291.83" y="52.4" width="5.1" height="5.1" fill="#075492"/><rect x="296.93" y="52.4" width="5.1" height="5.1" fill="#ffcb10"/><rect x="327.57" y="48.1" width="8.6" height="8.6" fill="#fffbee"/><rect x="13.97332" y="83.83991999999999" width="6.986659999999997" height="6.986659999999997" fill="#ffc908"/><rect x="13.97" y="83.84" width="3.49" height="3.49" fill="#ffe587"/><rect x="17.47" y="83.84" width="3.49" height="3.49" fill="#719dc1"/><rect x="13.97" y="87.33" width="3.49" height="3.49" fill="#749fc2"/><rect x="17.47" y="87.33" width="3.49" height="3.49" fill="#d9e5ee"/><rect x="47.3" y="82.23" width="10.21" height="10.21" fill="#ffd950"/><rect x="80.62" y="80.62" width="13.43" height="13.43" fill="#20659d"/><rect x="113.94404060799998" y="79.01074060799999" width="16.645018783999998" height="16.645018783999998" fill="#ffc908"/><rect x="113.94" y="79.01" width="8.32" height="8.32" fill="#ffcf24"/><rect x="122.27" y="79.01" width="8.32" height="8.32" fill="#ffde67"/><rect x="113.94" y="87.33" width="8.32" height="8.32" fill="#fff3c9"/><rect x="122.27" y="87.33" width="8.32" height="8.32" fill="#ffd74a"/><rect x="147.267614144" y="77.40101414399999" width="19.864471711999997" height="19.864471711999997" fill="#ffc908"/><rect x="147.27" y="77.4" width="9.93" height="9.93" fill="#fff8e1"/><rect x="157.2" y="77.4" width="9.93" height="9.93" fill="#ffe896"/><rect x="147.27" y="87.33" width="9.93" height="9.93" fill="#9bbad3"/><rect x="157.2" y="87.33" width="9.93" height="9.93" fill="#ffd749"/><rect x="181.93" y="77.13" width="20.4" height="20.4" fill="#427cac"/><rect x="217.13421414399997" y="77.40101414399999" width="19.864471711999997" height="19.864471711999997" fill="#ffc908"/><rect x="217.13" y="77.4" width="9.93" height="9.93" fill="#ffe588"/><rect x="227.07" y="77.4" width="9.93" height="9.93" fill="#fff8e0"/><rect x="217.13" y="87.33" width="9.93" height="9.93" fill="#095593"/><rect x="227.07" y="87.33" width="9.93" height="9.93" fill="#3372a5"/><rect x="253.68" y="79.01" width="16.65" height="16.65" fill="#ffd950"/><rect x="290.22" y="80.62" width="13.43" height="13.43" fill="#c1d4e4"/><rect x="326.76" y="82.23" width="10.21" height="10.21" fill="#8cb0cd"/><rect x="13.97" y="118.77" width="6.99" height="6.99" fill="#b8cee0"/><rect x="46.49" y="116.36" width="11.82" height="11.82" fill="#175f99"/><rect x="79.01074060799999" y="113.94404060799998" width="16.645018783999998" height="16.645018783999998" fill="#ffc908"/><rect x="79.01" y="113.94" width="8.32" height="8.32" fill="#6d9abf"/><rect x="87.33" y="113.94" width="8.32" height="8.32" fill="#f8fafc"/><rect x="79.01" y="122.27" width="8.32" height="8.32" fill="#fff8e1"/><rect x="87.33" y="122.27" width="8.32" height="8.32" fill="#ffd84c"/><rect x="111.52945091199997" y="111.52945091199997" width="21.474198175999994" height="21.474198175999994" fill="#ffc908"/><rect x="111.53" y="111.53" width="10.74" height="10.74" fill="#ffd12d"/><rect x="122.27" y="111.53" width="10.74" height="10.74" fill="#ffe37f"/><rect x="111.53" y="122.27" width="10.74" height="10.74" fill="#ffdf6d"/><rect x="122.27" y="122.27" width="10.74" height="10.74" fill="#ffe072"/><rect x="144.05" y="109.11" width="26.3" height="26.3" fill="#ffe896"/><rect x="178.57902959999998" y="108.71242959999998" width="27.108240799999994" height="27.108240799999994" fill="#ffc908"/><rect x="178.58" y="108.71" width="13.55" height="13.55" fill="#ffcb12"/><rect x="192.13" y="108.71" width="13.55" height="13.55" fill="#b1c9dd"/><rect x="178.58" y="122.27" width="13.55" height="13.55" fill="#ffe27c"/><rect x="192.13" y="122.27" width="13.55" height="13.55" fill="#cddde9"/><rect x="213.91" y="109.11" width="26.3" height="26.3" fill="#d8e4ee"/><rect x="251.26265091199997" y="111.52945091199997" width="21.474198175999994" height="21.474198175999994" fill="#ffc908"/><rect x="251.26" y="111.53" width="10.74" height="10.74" fill="#fff2c5"/><rect x="262" y="111.53" width="10.74" height="10.74" fill="#fffbef"/><rect x="251.26" y="122.27" width="10.74" height="10.74" fill="#ffe071"/><rect x="262" y="122.27" width="10.74" height="10.74" fill="#4880ae"/><rect x="288.61054060799995" y="113.94404060799998" width="16.645018783999998" height="16.645018783999998" fill="#ffc908"/><rect x="288.61" y="113.94" width="8.32" height="8.32" fill="#5c8eb7"/><rect x="296.93" y="113.94" width="8.32" height="8.32" fill="#99b8d2"/><rect x="288.61" y="122.27" width="8.32" height="8.32" fill="#fffcef"/><rect x="296.93" y="122.27" width="8.32" height="8.32" fill="#ffefb4"/><rect x="325.96" y="116.36" width="11.82" height="11.82" fill="#bad0e1"/><rect x="13.97" y="153.71" width="6.99" height="6.99" fill="#fefefe"/><rect x="45.687167071999994" y="150.48706707199997" width="13.425565855999995" height="13.425565855999995" fill="#ffc908"/><rect x="45.69" y="150.49" width="6.71" height="6.71" fill="#ffd334"/><rect x="52.4" y="150.49" width="6.71" height="6.71" fill="#ffda54"/><rect x="45.69" y="157.2" width="6.71" height="6.71" fill="#2b6da2"/><rect x="52.4" y="157.2" width="6.71" height="6.71" fill="#fff7db"/><rect x="77.40101414399999" y="147.267614144" width="19.864471711999997" height="19.864471711999997" fill="#ffc908"/><rect x="77.4" y="147.27" width="9.93" height="9.93" fill="#9ebcd5"/><rect x="87.33" y="147.27" width="9.93" height="9.93" fill="#20659d"/><rect x="77.4" y="157.2" width="9.93" height="9.93" fill="#edf3f7"/><rect x="87.33" y="157.2" width="9.93" height="9.93" fill="#ffda57"/><rect x="109.11486121599998" y="144.04816121599998" width="26.303377567999995" height="26.303377567999995" fill="#ffc908"/><rect x="109.11" y="144.05" width="13.15" height="13.15" fill="#eaf1f6"/><rect x="122.27" y="144.05" width="13.15" height="13.15" fill="#115b96"/><rect x="109.11" y="157.2" width="13.15" height="13.15" fill="#fff3c8"/><rect x="122.27" y="157.2" width="13.15" height="13.15" fill="#ffd333"/><rect x="140.82870828799997" y="140.82870828799997" width="32.742283424" height="32.742283424" fill="#ffc908"/><rect x="140.83" y="140.83" width="16.37" height="16.37" fill="#81a8c8"/><rect x="157.2" y="140.83" width="16.37" height="16.37" fill="#ffcf21"/><rect x="140.83" y="157.2" width="16.37" height="16.37" fill="#ffcd1a"/><rect x="157.2" y="157.2" width="16.37" height="16.37" fill="#3e7aaa"/><rect x="175.2254328" y="140.2921328" width="33.815434399999994" height="33.815434399999994" fill="#ffc908"/><rect x="175.23" y="140.29" width="16.91" height="16.91" fill="#cbdbe8"/><rect x="192.13" y="140.29" width="16.91" height="16.91" fill="#ffedad"/><rect x="175.23" y="157.2" width="16.91" height="16.91" fill="#c3d5e5"/><rect x="192.13" y="157.2" width="16.91" height="16.91" fill="#ffd029"/><rect x="210.69530828799995" y="140.82870828799997" width="32.742283424" height="32.742283424" fill="#ffc908"/><rect x="210.7" y="140.83" width="16.37" height="16.37" fill="#ffd953"/><rect x="227.07" y="140.83" width="16.37" height="16.37" fill="#5f90b9"/><rect x="210.7" y="157.2" width="16.37" height="16.37" fill="#ffe37e"/><rect x="227.07" y="157.2" width="16.37" height="16.37" fill="#d5e2ec"/><rect x="248.84806121599996" y="144.04816121599998" width="26.303377567999995" height="26.303377567999995" fill="#ffc908"/><rect x="248.85" y="144.05" width="13.15" height="13.15" fill="#fffefa"/><rect x="262" y="144.05" width="13.15" height="13.15" fill="#ffedaf"/><rect x="248.85" y="157.2" width="13.15" height="13.15" fill="#ffedae"/><rect x="262" y="157.2" width="13.15" height="13.15" fill="#a7c2d8"/><rect x="287" y="147.27" width="19.86" height="19.86" fill="#ffdd63"/><rect x="325.15" y="150.49" width="13.43" height="13.43" fill="#ffd540"/><rect x="13.97332" y="188.63982" width="6.986659999999997" height="6.986659999999997" fill="#ffc908"/><rect x="13.97" y="188.64" width="3.49" height="3.49" fill="#ffd951"/><rect x="17.47" y="188.64" width="3.49" height="3.49" fill="#fff8de"/><rect x="13.97" y="192.13" width="3.49" height="3.49" fill="#ffcc17"/><rect x="17.47" y="192.13" width="3.49" height="3.49" fill="#3574a6"/><rect x="45.5530232" y="185.2862232" width="13.693853599999997" height="13.693853599999997" fill="#ffc908"/><rect x="45.55" y="185.29" width="6.85" height="6.85" fill="#fff3c9"/><rect x="52.4" y="185.29" width="6.85" height="6.85" fill="#dde7f0"/><rect x="45.55" y="192.13" width="6.85" height="6.85" fill="#dbe6ef"/><rect x="52.4" y="192.13" width="6.85" height="6.85" fill="#ffce20"/><rect x="77.13" y="181.93" width="20.4" height="20.4" fill="#ffcd1b"/><rect x="108.71" y="178.58" width="27.11" height="27.11" fill="#ffd53f"/><rect x="140.2921328" y="175.2254328" width="33.815434399999994" height="33.815434399999994" fill="#ffc908"/><rect x="140.29" y="175.23" width="16.91" height="16.91" fill="#e6edf4"/><rect x="157.2" y="175.23" width="16.91" height="16.91" fill="#3171a5"/><rect x="140.29" y="192.13" width="16.91" height="16.91" fill="#ecf2f7"/><rect x="157.2" y="192.13" width="16.91" height="16.91" fill="#cddde9"/><rect x="174.67" y="174.67" width="34.93" height="34.93" fill="#ffd952"/><rect x="210.16" y="175.23" width="33.82" height="33.82" fill="#055391"/><rect x="248.45" y="178.58" width="27.11" height="27.11" fill="#d4e1ec"/><rect x="286.7325264" y="181.93262639999998" width="20.401047199999997" height="20.401047199999997" fill="#ffc908"/><rect x="286.73" y="181.93" width="10.2" height="10.2" fill="#4b83b0"/><rect x="296.93" y="181.93" width="10.2" height="10.2" fill="#ffe791"/><rect x="286.73" y="192.13" width="10.2" height="10.2" fill="#ffcd1d"/><rect x="296.93" y="192.13" width="10.2" height="10.2" fill="#ffd230"/><rect x="325.01942319999995" y="185.2862232" width="13.693853599999997" height="13.693853599999997" fill="#ffc908"/><rect x="325.02" y="185.29" width="6.85" height="6.85" fill="#ffedab"/><rect x="331.87" y="185.29" width="6.85" height="6.85" fill="#035190"/><rect x="325.02" y="192.13" width="6.85" height="6.85" fill="#5086b2"/><rect x="331.87" y="192.13" width="6.85" height="6.85" fill="#cddde9"/><rect x="13.97" y="223.57" width="6.99" height="6.99" fill="#21669e"/><rect x="45.69" y="220.35" width="13.43" height="13.43" fill="#749fc2"/><rect x="77.40101414399999" y="217.13421414399997" width="19.864471711999997" height="19.864471711999997" fill="#ffc908"/><rect x="77.4" y="217.13" width="9.93" height="9.93" fill="#ffd438"/><rect x="87.33" y="217.13" width="9.93" height="9.93" fill="#ecf2f7"/><rect x="77.4" y="227.07" width="9.93" height="9.93" fill="#125b97"/><rect x="87.33" y="227.07" width="9.93" height="9.93" fill="#4982af"/><rect x="109.11486121599998" y="213.91476121599996" width="26.303377567999995" height="26.303377567999995" fill="#ffc908"/><rect x="109.11" y="213.91" width="13.15" height="13.15" fill="#84aac9"/><rect x="122.27" y="213.91" width="13.15" height="13.15" fill="#f6f9fb"/><rect x="109.11" y="227.07" width="13.15" height="13.15" fill="#fffffd"/><rect x="122.27" y="227.07" width="13.15" height="13.15" fill="#ffdc5d"/><rect x="140.82870828799997" y="210.69530828799995" width="32.742283424" height="32.742283424" fill="#ffc908"/><rect x="140.83" y="210.7" width="16.37" height="16.37" fill="#ffea9e"/><rect x="157.2" y="210.7" width="16.37" height="16.37" fill="#165e99"/><rect x="140.83" y="227.07" width="16.37" height="16.37" fill="#ffe071"/><rect x="157.2" y="227.07" width="16.37" height="16.37" fill="#3775a7"/><rect x="175.23" y="210.16" width="33.82" height="33.82" fill="#ffca0f"/><rect x="210.69530828799995" y="210.69530828799995" width="32.742283424" height="32.742283424" fill="#ffc908"/><rect x="210.7" y="210.7" width="16.37" height="16.37" fill="#ffe897"/><rect x="227.07" y="210.7" width="16.37" height="16.37" fill="#b0c9dc"/><rect x="210.7" y="227.07" width="16.37" height="16.37" fill="#075492"/><rect x="227.07" y="227.07" width="16.37" height="16.37" fill="#ffdf6b"/><rect x="248.84806121599996" y="213.91476121599996" width="26.303377567999995" height="26.303377567999995" fill="#ffc908"/><rect x="248.85" y="213.91" width="13.15" height="13.15" fill="#f1f5f9"/><rect x="262" y="213.91" width="13.15" height="13.15" fill="#ffd84c"/><rect x="248.85" y="227.07" width="13.15" height="13.15" fill="#749fc2"/><rect x="262" y="227.07" width="13.15" height="13.15" fill="#115a96"/><rect x="287.00081414399995" y="217.13421414399997" width="19.864471711999997" height="19.864471711999997" fill="#ffc908"/><rect x="287" y="217.13" width="9.93" height="9.93" fill="#dde8f0"/><rect x="296.93" y="217.13" width="9.93" height="9.93" fill="#ffda56"/><rect x="287" y="227.07" width="9.93" height="9.93" fill="#ffda57"/><rect x="296.93" y="227.07" width="9.93" height="9.93" fill="#fff6d6"/><rect x="325.15" y="220.35" width="13.43" height="13.43" fill="#055291"/><rect x="13.97" y="258.51" width="6.99" height="6.99" fill="#ffcf25"/><rect x="46.492030304" y="256.091830304" width="11.815839391999994" height="11.815839391999994" fill="#ffc908"/><rect x="46.49" y="256.09" width="5.91" height="5.91" fill="#6394bb"/><rect x="52.4" y="256.09" width="5.91" height="5.91" fill="#6394bb"/><rect x="46.49" y="262" width="5.91" height="5.91" fill="#ffea9d"/><rect x="52.4" y="262" width="5.91" height="5.91" fill="#ffea9e"/><rect x="79.01" y="253.68" width="16.65" height="16.65" fill="#fff5d1"/><rect x="111.53" y="251.26" width="21.47" height="21.47" fill="#89aecb"/><rect x="144.04816121599998" y="248.84806121599996" width="26.303377567999995" height="26.303377567999995" fill="#ffc908"/><rect x="144.05" y="248.85" width="13.15" height="13.15" fill="#457fae"/><rect x="157.2" y="248.85" width="13.15" height="13.15" fill="#ffe793"/><rect x="144.05" y="262" width="13.15" height="13.15" fill="#ffcc18"/><rect x="157.2" y="262" width="13.15" height="13.15" fill="#e1ebf2"/><rect x="178.57902959999998" y="248.44562959999996" width="27.108240799999994" height="27.108240799999994" fill="#ffc908"/><rect x="178.58" y="248.45" width="13.55" height="13.55" fill="#3574a6"/><rect x="192.13" y="248.45" width="13.55" height="13.55" fill="#94b5d0"/><rect x="178.58" y="262" width="13.55" height="13.55" fill="#ffd749"/><rect x="192.13" y="262" width="13.55" height="13.55" fill="#ffdb59"/><rect x="213.91" y="248.85" width="26.3" height="26.3" fill="#92b4cf"/><rect x="251.26265091199997" y="251.26265091199997" width="21.474198175999994" height="21.474198175999994" fill="#ffc908"/><rect x="251.26" y="251.26" width="10.74" height="10.74" fill="#ffe27a"/><rect x="262" y="251.26" width="10.74" height="10.74" fill="#ffdb58"/><rect x="251.26" y="262" width="10.74" height="10.74" fill="#afc8dc"/><rect x="262" y="262" width="10.74" height="10.74" fill="#427dac"/><rect x="288.61054060799995" y="253.67724060799995" width="16.645018783999998" height="16.645018783999998" fill="#ffc908"/><rect x="288.61" y="253.68" width="8.32" height="8.32" fill="#5288b3"/><rect x="296.93" y="253.68" width="8.32" height="8.32" fill="#4d84b1"/><rect x="288.61" y="262" width="8.32" height="8.32" fill="#0f5996"/><rect x="296.93" y="262" width="8.32" height="8.32" fill="#ffe894"/><rect x="325.95843030399993" y="256.091830304" width="11.815839391999994" height="11.815839391999994" fill="#ffc908"/><rect x="325.96" y="256.09" width="5.91" height="5.91" fill="#d9e5ee"/><rect x="331.87" y="256.09" width="5.91" height="5.91" fill="#fff6d6"/><rect x="325.96" y="262" width="5.91" height="5.91" fill="#286aa0"/><rect x="331.87" y="262" width="5.91" height="5.91" fill="#fff0bc"/><rect x="13.97332" y="293.43971999999997" width="6.986659999999997" height="6.986659999999997" fill="#ffc908"/><rect x="13.97" y="293.44" width="3.49" height="3.49" fill="#ffeeb0"/><rect x="17.47" y="293.44" width="3.49" height="3.49" fill="#acc6db"/><rect x="13.97" y="296.93" width="3.49" height="3.49" fill="#ffe99b"/><rect x="17.47" y="296.93" width="3.49" height="3.49" fill="#fff8e0"/><rect x="47.3" y="291.83" width="10.21" height="10.21" fill="#ffda57"/><rect x="80.62" y="290.22" width="13.43" height="13.43" fill="#2d6ea3"/><rect x="113.94" y="288.61" width="16.65" height="16.65" fill="#fff1c0"/><rect x="147.267614144" y="287.00081414399995" width="19.864471711999997" height="19.864471711999997" fill="#ffc908"/><rect x="147.27" y="287" width="9.93" height="9.93" fill="#fffae6"/><rect x="157.2" y="287" width="9.93" height="9.93" fill="#135c97"/><rect x="147.27" y="296.93" width="9.93" height="9.93" fill="#ffd439"/><rect x="157.2" y="296.93" width="9.93" height="9.93" fill="#22669e"/><rect x="181.93" y="286.73" width="20.4" height="20.4" fill="#20659d"/><rect x="217.13421414399997" y="287.00081414399995" width="19.864471711999997" height="19.864471711999997" fill="#ffc908"/><rect x="217.13" y="287" width="9.93" height="9.93" fill="#84aac9"/><rect x="227.07" y="287" width="9.93" height="9.93" fill="#ffde6a"/><rect x="217.13" y="296.93" width="9.93" height="9.93" fill="#ffd027"/><rect x="227.07" y="296.93" width="9.93" height="9.93" fill="#588cb6"/><rect x="253.67724060799995" y="288.61054060799995" width="16.645018783999998" height="16.645018783999998" fill="#ffc908"/><rect x="253.68" y="288.61" width="8.32" height="8.32" fill="#c1d4e4"/><rect x="262" y="288.61" width="8.32" height="8.32" fill="#dae6ef"/><rect x="253.68" y="296.93" width="8.32" height="8.32" fill="#0d5895"/><rect x="262" y="296.93" width="8.32" height="8.32" fill="#3976a8"/><rect x="290.22" y="290.22" width="13.43" height="13.43" fill="#1d639c"/><rect x="326.76329353599994" y="291.82999353599996" width="10.206112927999996" height="10.206112927999996" fill="#ffc908"/><rect x="326.76" y="291.83" width="5.1" height="5.1" fill="#d3e1ec"/><rect x="331.87" y="291.83" width="5.1" height="5.1" fill="#6796bc"/><rect x="326.76" y="296.93" width="5.1" height="5.1" fill="#2d6ea3"/><rect x="331.87" y="296.93" width="5.1" height="5.1" fill="#075492"/><rect x="13.97" y="328.37" width="6.99" height="6.99" fill="#97b7d1"/><rect x="48.101756767999994" y="327.56815676799994" width="8.596386463999998" height="8.596386463999998" fill="#ffc908"/><rect x="48.1" y="327.57" width="4.3" height="4.3" fill="#e1ebf2"/><rect x="52.4" y="327.57" width="4.3" height="4.3" fill="#ffd541"/><rect x="48.1" y="331.87" width="4.3" height="4.3" fill="#c7d9e7"/><rect x="52.4" y="331.87" width="4.3" height="4.3" fill="#ffd644"/><rect x="82.23019353599999" y="326.76329353599994" width="10.206112927999996" height="10.206112927999996" fill="#ffc908"/><rect x="82.23" y="326.76" width="5.1" height="5.1" fill="#c7d9e7"/><rect x="87.33" y="326.76" width="5.1" height="5.1" fill="#ffd53d"/><rect x="82.23" y="331.87" width="5.1" height="5.1" fill="#82a9c8"/><rect x="87.33" y="331.87" width="5.1" height="5.1" fill="#ffd84f"/><rect x="116.36" y="325.96" width="11.82" height="11.82" fill="#fff7da"/><rect x="150.49" y="325.15" width="13.43" height="13.43" fill="#ffcf24"/><rect x="185.29" y="325.02" width="13.69" height="13.69" fill="#ffe99b"/><rect x="220.35366707199995" y="325.15356707199993" width="13.425565855999995" height="13.425565855999995" fill="#ffc908"/><rect x="220.35" y="325.15" width="6.71" height="6.71" fill="#ffd644"/><rect x="227.07" y="325.15" width="6.71" height="6.71" fill="#fff4cb"/><rect x="220.35" y="331.87" width="6.71" height="6.71" fill="#eaf1f6"/><rect x="227.07" y="331.87" width="6.71" height="6.71" fill="#8eb1ce"/><rect x="256.091830304" y="325.95843030399993" width="11.815839391999994" height="11.815839391999994" fill="#ffc908"/><rect x="256.09" y="325.96" width="5.91" height="5.91" fill="#88adcb"/><rect x="262" y="325.96" width="5.91" height="5.91" fill="#bed2e2"/><rect x="256.09" y="331.87" width="5.91" height="5.91" fill="#bbd0e1"/><rect x="262" y="331.87" width="5.91" height="5.91" fill="#b7cddf"/><rect x="291.83" y="326.76" width="10.21" height="10.21" fill="#ffe894"/><rect x="327.56815676799994" y="327.56815676799994" width="8.596386463999998" height="8.596386463999998" fill="#ffc908"/><rect x="327.57" y="327.57" width="4.3" height="4.3" fill="#095593"/><rect x="331.87" y="327.57" width="4.3" height="4.3" fill="#b9cfe0"/><rect x="327.57" y="331.87" width="4.3" height="4.3" fill="#eff4f8"/><rect x="331.87" y="331.87" width="4.3" height="4.3" fill="#4780ae"/></g></svg>