<?xml version="1.0" standalone="no"?><svg xmlns:xlink="http://www.w3.org/1999/xlink" xmlns="http://www.w3.org/2000/svg" viewBox="0 0 500 500" preserveAspectRatio="xMaxYMax slice"><g transform="scale(1.4313400491808441)"><rect x="0" y="0" width="349.33299999999997" height="349.33299999999997" fill="#ffc908"/><circle cx="17.465" cy="17.465" r="3.495" fill="#ffdf6e"/><circle cx="52.404999999999994" cy="17.465" r="3.495" fill="#fff1bf"/><circle cx="87.33500000000001" cy="17.465" r="3.495" fill="#fff3c7"/><circle cx="122.265" cy="17.465" r="3.495" fill="#fff7db"/><circle cx="157.205" cy="17.465" r="3.495" fill="#ffcc17"/><circle cx="192.135" cy="17.465" r="3.495" fill="#ffd337"/><circle cx="227.065" cy="17.465" r="3.495" fill="#ffdd65"/><circle cx="262.005" cy="17.465" r="3.495" fill="#fff4cd"/><circle cx="296.935" cy="17.465" r="3.495" fill="#ffe37e"/><circle cx="331.865" cy="17.465" r="3.495" fill="#fffae6"/><circle cx="17.465" cy="52.404999999999994" r="3.495" fill="#fff6d6"/><circle cx="52.4" cy="52.4" r="4.3" fill="#fff3c9"/><circle cx="87.33500000000001" cy="52.405" r="5.105" fill="#ffea9d"/><circle cx="122.27" cy="52.400000000000006" r="5.91" fill="#ffd951"/><circle cx="157.205" cy="52.405" r="6.715" fill="#fffcf2"/><circle cx="192.135" cy="52.394999999999996" r="6.845" fill="#ffda54"/><circle cx="227.065" cy="52.405" r="6.715" fill="#fffef8"/><circle cx="262" cy="52.400000000000006" r="5.91" fill="#ffedae"/><circle cx="296.935" cy="52.405" r="5.105" fill="#ffe68e"/><circle cx="331.87" cy="52.4" r="4.3" fill="#ffeca7"/><circle cx="17.465" cy="87.33500000000001" r="3.495" fill="#fffae8"/><circle cx="52.405" cy="87.33500000000001" r="5.105" fill="#ffda54"/><circle cx="87.33500000000001" cy="87.33500000000001" r="6.715" fill="#ffca0b"/><circle cx="122.265" cy="87.33500000000001" r="8.325" fill="#ffd53e"/><circle cx="157.20000000000002" cy="87.33000000000001" r="9.93" fill="#fff4ce"/><circle cx="192.13" cy="87.33" r="10.2" fill="#fffbee"/><circle cx="227.06" cy="87.33000000000001" r="9.93" fill="#ffd950"/><circle cx="262.005" cy="87.33500000000001" r="8.325" fill="#fff3c7"/><circle cx="296.935" cy="87.33500000000001" r="6.715" fill="#ffeeb2"/><circle cx="331.865" cy="87.33500000000001" r="5.105" fill="#ffdf6a"/><circle cx="17.465" cy="122.265" r="3.495" fill="#ffdb5a"/><circle cx="52.400000000000006" cy="122.27" r="5.91" fill="#ffdf6c"/><circle cx="87.33500000000001" cy="122.265" r="8.325" fill="#ffdf6d"/><circle cx="122.265" cy="122.265" r="10.735" fill="#fffef9"/><circle cx="157.20000000000002" cy="122.26" r="13.15" fill="#fff4cd"/><circle cx="192.13500000000002" cy="122.26499999999999" r="13.555" fill="#ffecaa"/><circle cx="227.06" cy="122.26" r="13.15" fill="#ffeeb3"/><circle cx="261.995" cy="122.265" r="10.735" fill="#ffe78f"/><circle cx="296.935" cy="122.265" r="8.325" fill="#fffffd"/><circle cx="331.87" cy="122.27" r="5.91" fill="#ffd337"/><circle cx="17.465" cy="157.205" r="3.495" fill="#fff9e2"/><circle cx="52.405" cy="157.205" r="6.715" fill="#fffdf6"/><circle cx="87.33000000000001" cy="157.20000000000002" r="9.93" fill="#ffdd63"/><circle cx="122.26" cy="157.20000000000002" r="13.15" fill="#ffd439"/><circle cx="157.20000000000002" cy="157.20000000000002" r="16.37" fill="#fff5d2"/><circle cx="192.14" cy="157.2" r="16.91" fill="#ffd12f"/><circle cx="227.07" cy="157.20000000000002" r="16.37" fill="#fffaea"/><circle cx="262" cy="157.20000000000002" r="13.15" fill="#fff6d5"/><circle cx="296.93" cy="157.20000000000002" r="9.93" fill="#ffd337"/><circle cx="331.86499999999995" cy="157.205" r="6.715" fill="#ffd642"/><circle cx="17.465" cy="192.135" r="3.495" fill="#fff5d3"/><circle cx="52.394999999999996" cy="192.135" r="6.845" fill="#fff3c7"/><circle cx="87.33" cy="192.13" r="10.2" fill="#ffcf22"/><circle cx="122.26499999999999" cy="192.13500000000002" r="13.555" fill="#ffd337"/><circle cx="157.2" cy="192.14" r="16.91" fill="#fff3c9"/><circle cx="192.135" cy="192.135" r="17.465" fill="#fffbec"/><circle cx="227.07" cy="192.14" r="16.91" fill="#fff6d7"/><circle cx="262.005" cy="192.13500000000002" r="13.555" fill="#fff9e5"/><circle cx="296.93" cy="192.13" r="10.2" fill="#fffdf7"/><circle cx="331.865" cy="192.135" r="6.845" fill="#ffe68e"/><circle cx="17.465" cy="227.065" r="3.495" fill="#ffeca8"/><circle cx="52.405" cy="227.065" r="6.715" fill="#ffde69"/><circle cx="87.33000000000001" cy="227.06" r="9.93" fill="#fff7dd"/><circle cx="122.26" cy="227.06" r="13.15" fill="#ffd336"/><circle cx="157.20000000000002" cy="227.07" r="16.37" fill="#fff0ba"/><circle cx="192.14" cy="227.07" r="16.91" fill="#ffd646"/><circle cx="227.07" cy="227.07" r="16.37" fill="#ffe999"/><circle cx="262" cy="227.06" r="13.15" fill="#ffd749"/><circle cx="296.93" cy="227.06" r="9.93" fill="#ffde69"/><circle cx="331.86499999999995" cy="227.065" r="6.715" fill="#fff9e4"/><circle cx="17.465" cy="262.005" r="3.495" fill="#fff3c8"/><circle cx="52.400000000000006" cy="262" r="5.91" fill="#ffd12d"/><circle cx="87.33500000000001" cy="262.005" r="8.325" fill="#fff0ba"/><circle cx="122.265" cy="261.995" r="10.735" fill="#ffd746"/><circle cx="157.20000000000002" cy="262" r="13.15" fill="#fff4cf"/><circle cx="192.13500000000002" cy="262.005" r="13.555" fill="#ffcd19"/><circle cx="227.06" cy="262" r="13.15" fill="#ffd84b"/><circle cx="261.995" cy="261.995" r="10.735" fill="#ffdf6b"/><circle cx="296.935" cy="262.005" r="8.325" fill="#ffeba3"/><circle cx="331.87" cy="262" r="5.91" fill="#ffdd63"/><circle cx="17.465" cy="296.935" r="3.495" fill="#fff6d5"/><circle cx="52.405" cy="296.935" r="5.105" fill="#fffae9"/><circle cx="87.33500000000001" cy="296.935" r="6.715" fill="#ffe37e"/><circle cx="122.265" cy="296.935" r="8.325" fill="#fff9e5"/><circle cx="157.20000000000002" cy="296.93" r="9.93" fill="#ffe586"/><circle cx="192.13" cy="296.93" r="10.2" fill="#ffeeb3"/><circle cx="227.06" cy="296.93" r="9.93" fill="#ffd337"/><circle cx="262.005" cy="296.935" r="8.325" fill="#ffca0b"/><circle cx="296.935" cy="296.935" r="6.715" fill="#ffd748"/><circle cx="331.865" cy="296.935" r="5.105" fill="#fff0b9"/><circle cx="17.465" cy="331.865" r="3.495" fill="#ffcf25"/><circle cx="52.4" cy="331.87" r="4.3" fill="#ffdc60"/><circle cx="87.33500000000001" cy="331.865" r="5.105" fill="#ffca0b"/><circle cx="122.27" cy="331.87" r="5.91" fill="#ffdb5b"/><circle cx="157.205" cy="331.86499999999995" r="6.715" fill="#fffefa"/><circle cx="192.135" cy="331.865" r="6.845" fill="#ffd950"/><circle cx="227.065" cy="331.86499999999995" r="6.715" fill="#ffd233"/><circle cx="262" cy="331.87" r="5.91" fill="#fff4cc"/><circle cx="296.935" cy="331.865" r="5.105" fill="#ffe78f"/><circle cx="331.87" cy="331.87" r="4.3" fill="#ffefb7"/></g></svg>