<?xml version="1.0" standalone="no"?>
<!DOCTYPE svg PUBLIC "-//W3C//DTD SVG 20010904//EN"
 "http://www.w3.org/TR/2001/REC-SVG-20010904/DTD/svg10.dtd">
<svg version="1.0" xmlns="http://www.w3.org/2000/svg"
 width="2400.000000pt" height="2400.000000pt" viewBox="0 0 2400.000000 2400.000000"
 preserveAspectRatio="xMidYMid meet">
<metadata>
Created by potrace 1.14, written by Peter Selinger 2001-2017
</metadata>
<g transform="translate(0.000000,2400.000000) scale(0.100000,-0.100000)"
fill="#000000" stroke="none">
<path d="M245 17919 c-115 -39 -209 -140 -234 -249 -7 -30 -11 -1392 -11
-4161 l0 -4117 21 -68 c18 -57 31 -77 82 -129 44 -44 80 -69 122 -86 l60 -24
4513 -3 4512 -2 0 4430 0 4430 -4502 0 -4503 -1 -60 -20z m4885 -763 c490 -68
937 -264 1345 -591 132 -105 359 -333 469 -470 288 -360 485 -765 542 -1114
21 -130 20 -2772 -1 -2911 -32 -210 -95 -401 -211 -637 -172 -347 -445 -692
-753 -950 -406 -340 -870 -547 -1381 -615 -147 -20 -852 -16 -995 4 -501 73
-934 267 -1337 600 -110 91 -310 290 -403 403 -278 334 -477 724 -562 1101
l-27 119 -4 1340 c-2 955 0 1373 8 1453 38 376 231 803 540 1192 103 130 363
391 491 494 439 349 955 557 1479 596 166 12 674 4 800 -14z"/>
<path d="M4345 17093 c-482 -39 -917 -201 -1320 -493 -281 -204 -558 -493
-748 -780 -84 -127 -119 -195 -153 -296 -62 -184 -58 -63 -62 -1879 -3 -1723
0 -1903 37 -2074 26 -116 51 -177 127 -302 267 -443 667 -821 1114 -1052 283
-147 558 -231 880 -268 162 -19 743 -16 909 5 540 66 1017 293 1458 694 160
145 310 333 446 557 129 212 167 295 209 455 l22 85 6 1720 c6 1797 6 1817
-36 1955 -40 135 -184 376 -358 600 -96 124 -375 408 -496 504 -411 328 -884
523 -1367 565 -109 10 -566 13 -668 4z m-1015 -1135 c26 -14 57 -41 75 -66 27
-39 30 -52 29 -110 -3 -110 -79 -341 -155 -467 -23 -37 -79 -152 -125 -255
-159 -356 -206 -641 -146 -890 31 -131 70 -82 50 63 -15 116 -5 334 21 430 35
131 103 300 229 567 137 291 186 431 201 576 16 146 21 159 60 157 79 -3 182
-106 195 -196 9 -61 1 -77 -40 -77 -24 0 -37 -6 -47 -22 -14 -23 -37 -118 -56
-230 -6 -31 -53 -175 -107 -320 -187 -510 -233 -745 -186 -958 12 -50 22 -76
32 -78 14 -2 16 16 15 135 0 240 40 416 186 813 62 167 125 362 134 415 18 97
56 145 115 145 31 0 75 -51 90 -105 32 -113 -12 -366 -98 -566 l-49 -114 5
-185 c4 -172 2 -193 -21 -294 -30 -125 -30 -121 46 -245 34 -55 51 -96 67
-165 19 -83 26 -97 75 -155 29 -35 85 -116 124 -180 39 -64 119 -180 179 -256
174 -226 247 -332 307 -450 92 -181 96 -273 22 -430 -43 -89 -80 -131 -162
-185 -37 -24 -68 -52 -71 -64 -3 -11 -15 -66 -28 -121 l-23 -100 -532 -3 -533
-2 20 32 c185 305 224 376 224 405 0 43 -38 110 -124 218 -39 50 -121 167
-183 260 -139 209 -531 863 -550 914 -30 87 -39 224 -40 616 0 484 -17 407
209 945 94 222 127 330 131 429 3 81 19 98 74 75 55 -23 80 -42 101 -77 37
-61 44 -37 -195 -657 -109 -280 -121 -318 -134 -414 -15 -105 -14 -207 4 -361
18 -156 20 -162 40 -145 12 10 15 49 15 224 0 222 14 351 50 451 47 133 157
404 214 526 96 203 118 280 123 424 2 66 6 126 8 133 7 20 86 14 135 -10z
m2806 -83 c3 -155 38 -282 134 -475 42 -85 83 -184 195 -475 50 -129 65 -241
65 -491 0 -170 3 -214 14 -223 8 -7 16 -8 19 -4 3 5 13 84 23 176 15 144 16
184 6 285 -6 64 -20 146 -31 182 -20 72 -129 356 -241 635 -56 138 -73 192
-74 230 0 66 30 109 97 141 66 30 87 20 87 -39 0 -75 47 -249 100 -372 109
-253 199 -483 222 -565 22 -83 23 -96 23 -495 -1 -346 -4 -425 -18 -505 -20
-106 -9 -85 -220 -430 -333 -545 -424 -685 -547 -840 -77 -97 -110 -157 -110
-197 0 -18 42 -98 116 -223 64 -107 119 -201 121 -208 4 -10 -103 -12 -528
-10 l-533 3 -30 125 -31 125 -43 23 c-66 37 -138 117 -180 201 -36 73 -37 78
-37 185 0 102 3 117 31 182 49 112 120 224 252 398 176 231 202 269 275 388
36 58 89 135 119 170 49 58 55 71 67 138 13 74 24 99 95 214 42 70 44 98 16
212 -24 97 -30 216 -18 356 l9 107 -50 113 c-132 298 -150 605 -40 667 52 29
110 -8 129 -81 32 -122 98 -334 131 -418 58 -148 134 -376 157 -470 35 -141
55 -323 48 -432 -5 -82 -4 -98 9 -98 21 0 31 25 45 110 15 87 15 153 -1 264
-15 107 -74 345 -103 415 -68 162 -188 517 -201 592 -37 210 -45 229 -96 229
-56 0 -62 73 -13 158 30 52 119 113 166 115 32 2 33 1 45 -53 6 -30 12 -76 12
-101 2 -102 59 -264 191 -549 163 -351 208 -467 246 -630 26 -116 32 -278 14
-404 -11 -77 -5 -136 15 -136 32 0 69 215 62 355 -6 110 -48 299 -97 440 -33
93 -152 354 -180 395 -85 123 -192 458 -175 546 7 42 75 120 120 140 17 8 50
13 75 11 l45 -2 1 -100z m-1513 -245 c19 -47 57 -130 82 -185 76 -164 98 -250
99 -390 1 -118 0 -122 -47 -259 -26 -76 -46 -140 -44 -143 3 -2 60 -8 128 -14
323 -25 554 -104 620 -213 57 -93 -17 -276 -183 -451 -191 -202 -374 -289
-608 -289 -138 0 -209 16 -335 78 -235 116 -451 371 -480 567 -20 135 145 233
499 294 49 8 91 17 93 19 2 2 -11 28 -30 57 -89 140 -126 259 -107 345 6 26
49 120 96 210 91 174 137 294 156 406 7 37 15 65 18 60 4 -4 23 -45 43 -92z
m2131 -3669 c16 -18 16 -20 -10 -38 l-27 -20 138 -177 138 -177 -29 -30 c-15
-16 -33 -29 -40 -29 -6 0 -36 29 -65 64 -30 36 -58 65 -62 65 -21 2 -77 -53
-77 -75 0 -38 -38 -56 -103 -48 -66 8 -92 30 -84 71 4 20 -3 40 -26 73 -56 83
-54 82 -98 59 -22 -10 -39 -22 -39 -26 0 -3 14 -28 30 -55 17 -26 30 -50 30
-52 0 -2 -29 -23 -64 -46 -36 -23 -70 -48 -77 -56 -23 -28 3 -28 53 0 43 25
58 28 103 23 29 -3 66 -12 83 -21 56 -29 82 -136 44 -182 -16 -20 -20 -20 -49
-8 -28 12 -33 19 -33 47 0 41 -15 57 -55 57 -34 0 -68 -29 -80 -68 -16 -54 41
-111 100 -100 21 5 26 0 35 -30 12 -45 3 -52 -69 -52 -67 0 -130 28 -154 70
-10 17 -21 55 -24 85 -3 30 -10 55 -14 55 -5 0 -24 14 -44 31 -30 26 -35 38
-35 73 0 51 16 76 75 112 25 16 45 35 45 42 0 6 -2 12 -4 12 -2 0 -53 -24
-115 -52 l-111 -53 95 -203 c52 -112 95 -207 95 -212 0 -4 -12 -13 -27 -18
-16 -5 -35 -13 -45 -17 -12 -5 -23 5 -44 42 -15 26 -29 50 -31 52 -2 3 -13 -5
-26 -16 -38 -35 -63 -43 -134 -43 -83 0 -136 22 -192 80 -23 23 -41 46 -41 50
0 5 12 18 28 29 49 37 52 41 52 68 0 32 -26 63 -53 63 -23 0 -99 -20 -109 -30
-5 -3 4 -41 18 -83 22 -67 29 -77 49 -77 17 0 33 -13 55 -45 l31 -44 -36 -15
c-23 -10 -35 -22 -35 -34 0 -10 -8 -27 -19 -36 -17 -16 -21 -16 -62 0 -60 23
-109 61 -109 84 0 10 12 28 26 39 l26 20 -29 78 -29 78 -43 -2 c-24 -1 -46 -4
-48 -7 -3 -3 20 -100 51 -217 31 -117 55 -213 54 -214 -4 -4 -102 -24 -104
-22 -1 1 -25 85 -53 187 -76 272 -66 249 -104 240 -18 -4 -31 -11 -30 -16 0
-5 4 -34 8 -65 l7 -56 -69 -13 c-83 -16 -113 -26 -113 -40 0 -7 24 -9 74 -4
69 6 78 5 121 -20 64 -38 83 -80 67 -144 -15 -53 -52 -98 -76 -89 -26 10 -51
56 -37 70 18 18 13 65 -8 77 -34 17 -60 11 -97 -23 -25 -23 -36 -42 -36 -61
-1 -34 35 -73 74 -81 27 -6 28 -9 22 -43 -4 -21 -8 -39 -10 -41 -11 -12 -120
35 -152 63 -32 30 -36 40 -40 93 -3 37 1 69 8 83 11 20 9 30 -15 75 -32 57
-30 87 8 130 17 20 38 29 90 38 69 11 72 13 59 34 -6 10 -36 10 -137 0 l-129
-12 3 -50 c1 -28 8 -126 16 -220 7 -93 12 -171 11 -172 -1 -1 -25 -5 -54 -9
l-52 -7 0 29 c0 44 -10 50 -75 50 -144 -1 -240 125 -176 231 26 42 97 82 160
90 46 5 51 8 51 31 l0 24 -92 -3 -93 -4 -3 31 -3 31 148 7 c364 17 722 72
1003 154 258 76 694 291 965 476 44 30 83 55 86 55 3 1 14 -7 23 -18z m-4111
-99 c37 -25 231 -137 296 -172 24 -12 24 -12 18 26 -4 22 -9 54 -13 72 l-7 34
44 -22 c24 -12 46 -24 47 -25 2 -2 11 -34 21 -72 l16 -68 65 -32 c36 -18 124
-55 195 -83 72 -29 133 -55 137 -59 4 -4 2 -21 -4 -39 -10 -25 -16 -30 -34
-26 -19 5 -27 -10 -94 -189 -40 -107 -76 -200 -79 -206 -5 -8 -20 -6 -52 6
-24 9 -46 18 -48 19 -2 2 31 90 72 196 42 106 77 199 79 207 2 8 -11 20 -29
27 -33 14 -33 14 -33 -14 0 -43 -25 -119 -55 -164 -36 -54 -104 -85 -146 -67
-54 22 -80 109 -44 149 21 24 63 26 91 5 26 -20 29 -19 42 10 13 28 15 77 6
113 -6 20 -80 70 -89 60 -2 -2 -50 -87 -105 -188 -56 -102 -105 -189 -110
-193 -4 -5 -27 1 -50 13 -31 16 -40 25 -35 38 3 9 46 89 94 177 49 88 93 170
100 182 10 20 8 24 -19 38 l-30 15 -27 -45 c-16 -24 -68 -110 -116 -190 l-88
-144 -44 21 c-25 12 -45 26 -45 31 0 4 14 28 30 52 17 24 30 48 30 54 0 6 -18
11 -40 11 -118 0 -183 105 -146 234 l17 56 52 0 c60 0 82 13 91 52 5 22 1 30
-24 48 l-30 21 22 30 c12 16 23 29 26 29 2 0 22 -13 45 -28z m4467 -331 c0
-17 -105 -92 -124 -89 -40 6 -23 37 38 72 54 30 86 37 86 17z m-3294 -52 c39
-10 49 -18 77 -66 25 -43 39 -56 68 -63 44 -12 213 -35 322 -45 82 -7 85 -10
71 -62 -4 -14 -14 -23 -25 -23 -11 0 -19 -7 -19 -17 0 -22 -28 -314 -35 -368
l-6 -41 -47 6 -47 5 1 82 c1 75 -1 82 -20 87 -49 13 -82 6 -96 -19 -24 -46
-49 -43 -102 13 -38 40 -48 58 -48 84 0 37 15 58 41 58 24 0 26 4 34 85 l7 71
-50 10 -50 10 -47 -218 c-40 -183 -51 -218 -64 -214 -9 3 -33 8 -53 12 -21 3
-38 8 -38 10 0 2 13 65 30 140 16 76 29 139 27 140 -9 9 -158 47 -185 47 -62
1 -100 -74 -56 -109 19 -14 66 -14 109 0 16 6 26 0 44 -24 l23 -32 -31 -28
c-25 -23 -31 -37 -31 -69 0 -44 -1 -44 -50 -35 -23 5 -35 15 -42 35 -5 16 -19
30 -33 33 -40 10 -102 77 -114 124 -10 36 -9 48 7 85 17 39 74 99 102 109 10
3 10 9 1 25 -53 101 85 209 183 144 60 -40 73 -109 31 -159 -28 -34 -27 -36
27 -46 35 -6 38 -5 44 20 5 19 2 31 -9 39 -14 10 -15 18 -6 44 6 17 17 31 25
31 19 0 18 5 -12 56 -28 48 -26 50 42 33z m488 -41 c14 -23 -3 -52 -33 -56
-42 -6 -67 38 -39 66 17 17 58 11 72 -10z"/>
<path d="M4679 14559 c-20 -84 -18 -162 7 -196 51 -70 202 -104 378 -85 128
14 256 53 299 92 31 28 31 30 17 57 -41 77 -312 158 -596 179 l-91 6 -14 -53z"/>
<path d="M4395 14593 c-81 -11 -236 -47 -298 -68 -82 -29 -132 -59 -154 -91
-14 -22 -14 -26 0 -48 37 -56 221 -108 392 -110 132 -1 175 7 215 40 51 43 40
125 -32 236 -32 51 -38 53 -123 41z"/>
<path d="M6585 11809 c-16 -11 -29 -24 -27 -30 4 -15 83 -119 91 -119 3 0 21
13 40 29 l34 28 -48 57 c-27 31 -51 56 -54 55 -3 0 -19 -9 -36 -20z"/>
<path d="M5882 11441 c-11 -7 -11 -18 3 -63 17 -58 11 -94 -22 -130 -13 -15
-13 -18 6 -37 40 -40 111 -15 131 45 12 35 10 42 -26 116 -38 79 -56 92 -92
69z"/>
<path d="M4626 11059 c-15 -12 -26 -30 -26 -44 0 -31 44 -65 84 -65 52 0 59
11 52 74 l-7 56 -38 0 c-24 0 -49 -8 -65 -21z"/>
<path d="M2691 11695 c-15 -44 -53 -74 -103 -81 -31 -5 -38 -11 -38 -29 0 -37
31 -66 75 -71 22 -3 45 -1 51 3 15 11 104 149 104 161 0 9 -60 52 -72 52 -2 0
-10 -16 -17 -35z"/>
<path d="M3584 11375 c-8 -20 4 -35 27 -35 14 0 19 7 19 25 0 18 -5 25 -20 25
-11 0 -23 -7 -26 -15z"/>
<path d="M4105 11226 c-3 -12 -8 -44 -13 -73 l-9 -51 30 -6 c16 -3 40 -6 53
-6 25 0 24 -5 28 123 1 19 -5 23 -42 28 -37 5 -43 3 -47 -15z"/>
<path d="M20243 17020 c-451 -31 -752 -146 -1039 -397 -440 -385 -639 -910
-716 -1893 -18 -231 -18 -2236 0 -2465 56 -708 188 -1186 428 -1547 79 -118
256 -306 372 -393 206 -155 473 -255 802 -300 158 -22 611 -31 766 -15 438 44
724 187 970 482 362 434 555 1048 581 1846 l6 192 -580 0 -580 0 -6 -217 c-25
-808 -170 -1166 -512 -1269 -75 -23 -268 -23 -371 0 -413 89 -622 378 -696
956 -19 152 -19 2848 0 2995 79 600 313 917 729 990 311 54 553 -41 658 -259
86 -180 145 -529 145 -863 l0 -93 597 0 596 0 -7 183 c-26 724 -197 1237 -529
1584 -262 274 -591 425 -1027 472 -139 15 -447 21 -587 11z"/>
<path d="M11220 13510 l0 -3370 1793 2 1792 3 3 493 2 492 -1215 0 -1215 0 0
2875 0 2875 -580 0 -580 0 0 -3370z"/>
<path d="M16060 13510 l0 -3370 580 0 580 0 0 3370 0 3370 -580 0 -580 0 0
-3370z"/>
<path d="M19615 8719 c-129 -13 -222 -49 -296 -116 -63 -57 -82 -103 -76 -182
3 -36 8 -76 12 -88 7 -23 7 -23 -109 -23 l-116 0 0 -65 0 -65 120 0 120 0 0
-435 0 -435 100 0 100 0 2 433 3 432 613 3 612 2 0 -100 0 -100 -392 0 c-373
0 -395 -1 -425 -20 -83 -50 -34 -133 156 -264 84 -59 143 -70 179 -36 19 18
22 31 22 105 l0 85 230 0 230 0 0 -270 0 -270 105 0 105 0 0 435 0 435 315 0
315 0 0 -120 0 -120 -62 0 c-81 -1 -148 -14 -159 -31 -5 -8 -9 -27 -9 -42 0
-60 180 -207 289 -237 23 -6 57 -8 76 -4 63 12 65 20 65 301 l0 253 190 0 190
0 0 -435 0 -435 100 0 100 0 0 435 0 435 310 0 310 0 0 -134 0 -133 -65 -6
c-113 -11 -157 -52 -120 -114 19 -31 140 -130 206 -168 31 -17 59 -25 95 -25
70 0 84 17 84 103 l0 67 223 -2 222 -3 3 -227 2 -228 100 0 100 0 0 435 0 435
100 0 100 0 0 65 0 65 -1632 0 -1631 0 -111 72 c-61 40 -183 109 -271 153
-286 145 -523 205 -730 184z m307 -163 c113 -33 353 -140 448 -199 l74 -47
-496 0 -496 0 -12 30 c-7 17 -11 53 -8 85 4 44 11 62 34 86 62 65 111 80 254
75 86 -3 137 -11 202 -30z m3668 -511 l0 -135 -225 0 -225 0 0 135 0 135 225
0 225 0 0 -135z"/>
<path d="M4269 8699 c-122 -13 -215 -74 -263 -172 -32 -63 -33 -110 -2 -170
l23 -47 -1653 0 -1654 0 0 -65 0 -65 135 0 135 0 0 -140 0 -140 -190 0 -190 0
0 123 c-1 170 -21 212 -125 258 -142 63 -393 16 -456 -84 -24 -39 -22 -121 4
-161 17 -25 20 -26 123 -26 l106 0 -26 31 c-31 37 -43 76 -29 98 26 41 144 51
184 15 17 -15 19 -31 19 -136 l0 -118 -77 0 c-55 0 -88 -5 -112 -18 -75 -38
-66 -73 39 -159 130 -107 240 -163 293 -149 48 12 57 31 57 117 l0 79 190 0
190 0 0 -230 0 -230 100 0 100 0 0 435 0 435 235 0 235 0 0 -435 0 -435 100 0
100 0 0 435 0 435 455 0 455 0 0 -116 c0 -113 -1 -116 -28 -144 -33 -32 -102
-46 -184 -35 -50 6 -57 11 -135 93 l-83 87 -81 -41 -81 -40 72 -84 c218 -255
591 -587 668 -593 17 -1 137 67 148 84 2 4 -24 27 -58 50 -128 87 -215 155
-297 234 l-83 80 68 6 c81 8 172 40 215 76 53 45 62 76 67 216 l4 127 584 0
584 0 0 -65 0 -65 -313 0 c-243 0 -325 -3 -361 -14 -223 -67 -230 -309 -17
-524 74 -75 203 -168 274 -200 25 -11 32 -8 102 42 42 30 72 56 68 59 -4 2
-26 8 -48 12 -66 12 -116 44 -207 135 -99 98 -141 173 -142 251 -2 99 35 109
383 109 l261 0 0 -305 0 -305 105 0 105 0 0 435 0 435 220 0 220 0 0 -435 0
-435 100 0 100 0 0 435 0 435 305 0 305 0 41 -37 c46 -42 79 -100 79 -139 0
-35 -55 -89 -105 -103 -49 -14 -159 -14 -204 -1 l-34 9 6 -59 c10 -117 86
-207 232 -276 164 -77 408 -85 578 -19 20 8 40 15 42 15 3 0 5 -58 5 -130 l0
-130 105 0 105 0 0 435 0 435 100 0 100 0 0 65 0 65 -852 0 -851 0 -36 43
c-121 143 -218 225 -337 285 -109 55 -203 73 -315 61z m180 -149 c79 -37 300
-209 301 -233 0 -4 -111 -6 -247 -5 l-246 3 -34 49 c-103 150 44 272 226 186z
m1809 -579 l2 -204 -26 -28 c-36 -38 -137 -85 -212 -100 -82 -15 -196 -7 -259
21 -50 21 -142 104 -126 112 4 3 37 11 71 18 79 16 170 73 203 126 37 60 32
125 -14 203 l-36 61 197 -2 197 -3 3 -204z"/>
<path d="M9300 8703 c-174 -10 -316 -133 -313 -270 1 -35 9 -65 23 -88 l22
-35 -641 0 -641 0 0 -65 0 -65 705 0 705 0 0 -90 0 -90 -357 0 -358 -1 30 -21
c64 -46 193 -180 213 -222 46 -92 20 -175 -61 -197 -129 -35 -302 58 -422 225
-52 73 -125 221 -125 253 0 13 -2 23 -5 23 -3 0 -41 -18 -85 -40 -59 -30 -80
-45 -80 -60 0 -25 71 -160 125 -235 60 -85 162 -177 247 -224 101 -56 184 -74
312 -69 95 3 110 6 172 38 77 40 118 85 135 151 10 38 9 53 -6 102 -10 32 -31
78 -46 103 -16 24 -29 47 -29 50 0 2 75 3 168 2 l167 -3 3 -288 2 -288 98 3
97 3 3 438 2 437 223 -2 222 -3 3 -438 2 -438 98 3 97 3 3 438 2 437 545 0
545 0 0 -218 c0 -215 0 -219 -23 -240 -64 -60 -241 -97 -344 -73 -180 43 -189
259 -13 301 82 20 182 5 312 -45 15 -6 13 5 -11 77 l-28 83 -59 8 c-32 4 -111
7 -174 5 -108 -3 -120 -5 -183 -36 -120 -59 -197 -160 -197 -257 0 -113 144
-232 324 -266 102 -19 261 -7 326 26 14 7 35 16 48 19 l22 7 0 -130 0 -131
100 0 100 0 0 435 0 435 605 0 605 0 0 -100 0 -100 -392 0 c-373 0 -395 -1
-425 -20 -83 -50 -32 -137 155 -264 92 -62 131 -70 176 -35 24 19 26 26 26
105 l0 84 230 0 230 0 0 -270 0 -270 100 0 100 0 0 435 0 435 115 0 115 0 0
65 0 65 -1487 0 -1488 0 -108 114 c-191 203 -363 289 -557 279z m130 -142 c60
-23 180 -107 270 -190 l65 -60 -248 -1 c-280 0 -261 -5 -307 82 -25 47 -25 82
0 122 39 65 125 83 220 47z"/>
<path d="M14995 8698 c-155 -15 -274 -118 -283 -246 -3 -46 0 -68 17 -100 l21
-42 -375 0 -375 0 0 -65 0 -65 440 0 440 0 0 -214 0 -215 -132 61 c-73 33
-158 71 -188 85 -54 24 -54 25 -30 36 14 6 66 11 116 11 83 1 94 -1 132 -27
48 -31 49 -30 24 67 -21 82 -21 82 -172 91 -148 10 -277 -30 -375 -116 -74
-65 -99 -184 -56 -267 76 -150 358 -233 581 -171 41 11 80 25 87 31 10 8 13
-15 13 -116 l0 -126 100 0 100 0 0 435 0 435 225 0 225 0 0 -435 0 -435 100 0
100 0 0 435 0 435 275 0 275 0 0 -134 0 -133 -65 -6 c-109 -10 -150 -46 -125
-107 13 -31 153 -146 221 -180 50 -26 110 -28 145 -5 22 14 24 22 24 85 l0 70
220 0 220 0 0 -230 0 -230 100 0 100 0 2 433 3 432 203 3 202 2 0 -435 0 -435
100 0 100 0 0 435 0 435 135 0 135 0 0 65 0 65 -1156 0 -1156 0 -112 117
c-204 214 -372 292 -581 271z m192 -152 c53 -26 229 -162 272 -210 l24 -26
-245 0 -246 0 -28 33 c-31 37 -54 87 -54 119 0 33 41 86 80 103 49 21 134 13
197 -19z m1733 -501 l0 -135 -220 0 -220 0 0 135 0 135 220 0 220 0 0 -135z
m-2331 -295 l182 -85 -38 -17 c-48 -22 -152 -23 -220 -3 -29 9 -69 31 -93 53
-38 33 -42 42 -42 80 1 44 8 65 22 60 4 -2 90 -41 189 -88z"/>
<path d="M4257 6896 c-70 -26 -114 -62 -142 -121 -51 -104 -20 -220 76 -281
23 -14 98 -44 167 -66 144 -47 172 -67 172 -126 0 -75 -86 -121 -187 -100 -34
8 -58 22 -91 56 l-46 45 -50 -18 c-103 -36 -98 -33 -85 -56 47 -88 161 -156
277 -166 194 -16 338 93 337 257 -1 141 -76 211 -286 265 -67 18 -133 48 -144
66 -15 24 -7 81 16 105 54 58 152 51 218 -15 l38 -38 66 26 c37 14 67 30 67
35 0 23 -101 105 -154 125 -67 25 -189 28 -249 7z"/>
<path d="M8423 6896 c-174 -56 -263 -200 -263 -426 0 -222 100 -360 292 -401
69 -15 165 -5 225 23 26 12 69 43 94 69 46 47 89 134 73 148 -9 8 -122 41
-141 41 -6 0 -16 -13 -22 -29 -16 -36 -68 -87 -104 -100 -103 -39 -195 17
-227 138 -16 61 -14 205 4 264 38 127 137 186 239 143 35 -14 87 -69 87 -91 0
-8 4 -16 10 -20 13 -8 142 28 147 41 7 18 -31 86 -69 123 -55 55 -131 85 -223
88 -47 2 -97 -3 -122 -11z"/>
<path d="M10290 6892 c-25 -9 -58 -25 -75 -34 -203 -112 -244 -520 -71 -694
72 -71 143 -98 261 -99 77 0 98 4 146 26 86 41 160 126 170 198 4 22 -2 26
-61 42 -83 23 -87 23 -95 -1 -20 -62 -106 -120 -178 -120 -63 0 -105 32 -142
105 -28 56 -30 68 -30 170 0 102 2 115 31 176 39 81 77 111 148 116 68 5 123
-26 151 -84 11 -23 25 -42 30 -43 6 0 39 8 75 19 58 16 65 21 62 42 -7 63
-107 158 -194 184 -66 19 -171 18 -228 -3z"/>
<path d="M11062 6892 c-101 -36 -178 -120 -213 -230 -28 -92 -29 -261 -2 -348
55 -170 203 -265 390 -251 188 14 306 133 335 337 30 215 -48 403 -199 476
-75 37 -230 45 -311 16z m227 -142 c79 -40 111 -117 111 -265 0 -121 -19 -182
-69 -228 -108 -98 -271 -51 -312 89 -18 62 -18 235 0 287 16 48 66 106 106
123 45 20 120 17 164 -6z"/>
<path d="M13534 6896 c-96 -31 -173 -107 -216 -215 -19 -49 -22 -74 -22 -196
0 -123 2 -147 23 -197 68 -172 260 -263 451 -214 171 44 256 163 267 371 9
168 -25 281 -108 364 -70 70 -135 95 -254 98 -64 2 -115 -2 -141 -11z m203
-137 c45 -17 91 -69 110 -123 12 -36 17 -82 17 -156 0 -92 -3 -112 -26 -162
-56 -122 -195 -153 -295 -65 -45 39 -63 83 -73 170 -14 125 14 252 66 299 51
46 136 62 201 37z"/>
<path d="M16976 6885 c-143 -59 -226 -204 -226 -400 0 -190 77 -328 219 -393
49 -23 69 -26 161 -27 88 0 113 4 154 23 154 71 217 186 217 397 0 178 -43
283 -148 359 -96 69 -264 88 -377 41z m258 -145 c59 -36 89 -110 94 -231 5
-124 -14 -198 -67 -250 -79 -79 -203 -74 -275 11 -42 51 -59 128 -53 244 7
139 40 206 119 242 48 21 135 14 182 -16z"/>
<path d="M19114 6896 c-97 -31 -173 -108 -216 -215 -19 -49 -22 -74 -22 -196
0 -123 2 -147 23 -197 68 -172 260 -263 451 -214 171 44 256 163 267 372 12
217 -57 362 -207 432 -45 21 -72 26 -155 29 -65 2 -114 -2 -141 -11z m210
-140 c43 -18 91 -77 107 -135 8 -26 14 -90 13 -146 0 -127 -28 -198 -95 -242
-74 -49 -180 -34 -244 34 -85 93 -78 374 11 455 53 48 141 62 208 34z"/>
<path d="M0 6490 l0 -410 260 0 260 0 0 70 0 70 -175 0 -175 0 0 340 0 340
-85 0 -85 0 0 -410z"/>
<path d="M680 6490 l0 -410 80 0 80 0 0 410 0 410 -80 0 -80 0 0 -410z"/>
<path d="M1060 6490 l0 -410 85 0 85 0 0 160 0 160 100 0 100 0 0 70 0 70
-100 0 -100 0 0 110 0 110 180 0 181 0 -3 68 -3 67 -262 3 -263 2 0 -410z"/>
<path d="M1730 6490 l0 -410 285 0 285 0 0 70 0 70 -200 0 -200 0 0 115 0 115
120 0 120 0 0 60 0 60 -120 0 -120 0 0 95 0 95 200 0 200 0 0 70 0 70 -285 0
-285 0 0 -410z"/>
<path d="M2830 6490 l0 -410 85 0 85 0 -2 408 -3 407 -82 3 -83 3 0 -411z"/>
<path d="M3210 6490 l0 -410 85 0 85 0 0 282 0 282 177 -282 177 -282 88 0 88
0 -2 408 -3 407 -82 3 -83 3 -2 -277 -3 -276 -174 276 -173 276 -89 0 -89 0 0
-410z"/>
<path d="M4852 6588 c4 -353 6 -366 85 -445 66 -66 224 -99 355 -73 103 20
168 64 211 145 21 38 22 54 25 363 l3 323 -83 -3 -83 -3 -5 -290 c-5 -266 -7
-293 -25 -323 -29 -48 -93 -75 -161 -70 -62 5 -99 28 -129 79 -19 32 -20 55
-23 322 l-3 287 -85 0 -86 0 4 -312z"/>
<path d="M5730 6490 l0 -410 85 0 85 0 2 163 3 162 69 3 c38 2 73 -1 79 -7 5
-5 40 -79 77 -163 l66 -153 82 -3 c45 -2 82 0 82 3 0 4 -32 81 -71 172 -66
154 -76 193 -49 193 6 0 28 12 50 26 126 83 100 315 -43 382 -60 28 -180 42
-364 42 l-153 0 0 -410z m411 245 c29 -15 59 -61 59 -89 0 -33 -26 -69 -64
-89 -31 -16 -65 -22 -138 -25 l-98 -4 0 109 c0 60 3 113 8 118 12 12 201 -4
233 -20z"/>
<path d="M6725 6888 c-3 -7 -65 -192 -139 -410 l-134 -398 83 0 83 0 32 95 32
95 137 0 137 0 30 -92 30 -93 82 -3 c48 -2 82 1 82 7 0 5 -61 188 -135 407
-74 219 -135 399 -135 401 0 2 -41 3 -90 3 -64 0 -92 -4 -95 -12z m143 -356
c23 -70 42 -131 42 -135 0 -4 -43 -7 -95 -7 l-94 0 47 135 c26 74 49 135 52
135 3 0 25 -58 48 -128z"/>
<path d="M7310 6490 l0 -410 85 0 85 0 2 277 3 277 174 -277 174 -277 83 0 84
0 0 410 0 410 -80 0 -80 0 -2 -277 -3 -277 -174 277 -175 277 -88 0 -88 0 0
-410z"/>
<path d="M8997 6893 c-4 -3 -7 -188 -7 -410 l0 -403 290 0 290 0 0 70 0 70
-205 0 -205 0 0 115 0 115 125 0 125 0 0 60 0 59 -122 3 -123 3 0 90 0 90 203
3 202 2 0 70 0 70 -283 0 c-156 0 -287 -3 -290 -7z"/>
<path d="M11738 6895 c-5 -5 -8 -190 -8 -412 l0 -403 85 0 85 0 2 163 3 162
76 3 76 3 70 -163 70 -163 86 -3 86 -3 -77 177 c-46 106 -72 179 -66 181 6 2
32 17 57 33 61 39 87 90 87 172 0 117 -60 201 -167 235 -53 16 -452 32 -465
18z m402 -160 c57 -29 74 -79 45 -134 -23 -45 -76 -64 -187 -69 l-98 -4 0 109
c0 60 3 113 8 118 12 12 201 -4 232 -20z"/>
<path d="M12530 6491 l0 -411 85 0 85 0 0 160 0 160 114 0 c154 0 230 23 296
89 93 93 95 237 4 328 -65 64 -110 74 -366 80 l-218 6 0 -412z m379 258 c63
-13 91 -45 91 -101 0 -79 -71 -118 -217 -118 l-83 0 0 115 0 115 80 0 c43 0
102 -5 129 -11z"/>
<path d="M14200 6491 l0 -411 85 0 85 0 0 165 0 166 76 -3 77 -3 70 -162 70
-163 83 0 c83 0 83 0 75 23 -5 12 -39 91 -75 176 -37 85 -65 155 -64 156 2 1
22 12 44 23 70 36 114 105 114 183 0 57 -32 134 -74 175 -63 64 -112 75 -358
81 l-208 6 0 -412z m345 259 c47 -7 66 -16 88 -40 37 -42 37 -92 -1 -130 -36
-36 -87 -50 -184 -50 l-78 0 0 115 0 115 58 0 c31 0 84 -4 117 -10z"/>
<path d="M15060 6503 c-73 -219 -135 -404 -138 -410 -3 -10 17 -13 80 -13 l84
0 30 93 30 92 136 3 136 3 20 -53 c11 -29 25 -72 32 -95 l13 -43 83 0 83 0
-137 408 -137 407 -91 3 -92 3 -132 -398z m227 -111 c-49 -1 -91 -1 -93 1 -2
2 17 66 43 143 l46 139 47 -140 47 -140 -90 -3z"/>
<path d="M15610 6830 l0 -70 120 0 120 0 0 -340 0 -340 85 0 85 0 2 338 3 337
118 3 117 3 0 69 0 70 -325 0 -325 0 0 -70z"/>
<path d="M16420 6490 l0 -410 85 0 85 0 -2 408 -3 407 -82 3 -83 3 0 -411z"/>
<path d="M17660 6490 l0 -410 85 0 85 0 0 282 0 282 177 -282 177 -282 88 0
88 0 -2 408 -3 407 -82 3 -83 3 -2 -277 -3 -276 -174 276 -173 276 -89 0 -89
0 0 -410z"/>
<path d="M19780 6490 l0 -410 85 0 85 0 0 160 0 160 100 0 100 0 0 70 0 70
-100 0 -100 0 0 110 0 110 175 0 175 0 0 70 0 70 -260 0 -260 0 0 -410z"/>
<path d="M20820 6490 l0 -410 80 0 80 0 0 410 0 410 -80 0 -80 0 0 -410z"/>
<path d="M21200 6490 l0 -410 85 0 85 0 2 277 3 277 173 -277 174 -277 84 0
84 0 0 410 0 410 -80 0 -80 0 0 -270 c0 -148 -3 -270 -7 -270 -5 0 -84 122
-177 270 l-170 270 -88 0 -88 0 0 -410z"/>
<path d="M22098 6894 c-5 -4 -8 -189 -8 -412 l0 -404 208 4 c204 3 208 4 269
32 145 66 220 213 211 408 -4 88 -9 106 -42 172 -43 88 -102 145 -185 178 -50
19 -78 22 -251 26 -107 2 -198 0 -202 -4z m367 -161 c94 -48 139 -126 138
-238 -1 -125 -55 -222 -145 -259 -23 -10 -67 -16 -113 -16 l-75 0 0 271 0 272
78 -5 c51 -3 91 -12 117 -25z"/>
<path d="M22960 6490 l0 -410 85 0 85 0 -2 408 -3 407 -82 3 -83 3 0 -411z"/>
<path d="M23402 6503 c-74 -219 -136 -404 -139 -410 -3 -10 16 -13 79 -13 l84
0 30 93 30 92 139 0 139 0 30 -92 30 -93 84 0 c63 0 83 3 80 13 -3 6 -65 191
-138 410 l-133 397 -91 0 -91 0 -133 -397z m269 40 c23 -71 44 -134 47 -140 3
-10 -19 -13 -91 -13 l-95 0 46 140 c26 77 47 140 48 140 1 0 21 -57 45 -127z"/>
</g>
</svg>
